<?xml version="1.0" encoding="UTF-8" standalone="no"?>
<svg
   xmlns:dc="http://purl.org/dc/elements/1.1/"
   xmlns:cc="http://creativecommons.org/ns#"
   xmlns:rdf="http://www.w3.org/1999/02/22-rdf-syntax-ns#"
   xmlns:svg="http://www.w3.org/2000/svg"
   xmlns="http://www.w3.org/2000/svg"
   viewBox="0 0 394.14001 349"
   height="349"
   width="394.14001"
   xml:space="preserve"
   id="svg2"
   version="1.1"><metadata
     id="metadata8"><rdf:RDF><cc:Work
         rdf:about=""><dc:format>image/svg+xml</dc:format><dc:type
           rdf:resource="http://purl.org/dc/dcmitype/StillImage" /></cc:Work></rdf:RDF></metadata><defs
     id="defs6"><clipPath
       id="clipPath18"
       clipPathUnits="userSpaceOnUse"><path
         id="path16"
         d="M 0,0 H 295.606 V 261.75 H 0 Z" /></clipPath><clipPath
       id="clipPath50"
       clipPathUnits="userSpaceOnUse"><path
         id="path48"
         d="M 0,261.75 H 295.605 V 0 H 0 Z" /></clipPath><clipPath
       id="clipPath66"
       clipPathUnits="userSpaceOnUse"><path
         id="path64"
         d="M 0,261.75 H 295.605 V 0 H 0 Z" /></clipPath></defs><g
     transform="matrix(1.3333333,0,0,-1.3333333,0,349)"
     id="g10"><g
       id="g12"><g
         clip-path="url(#clipPath18)"
         id="g14"><g
           transform="translate(114.5698,133.1836)"
           id="g20"><path
             id="path22"
             style="fill:#3c5c97;fill-opacity:1;fill-rule:evenodd;stroke:none"
             d="M 0,0 C 0.138,0.823 0.728,0.403 0.726,0 0.587,-0.823 -0.002,-0.402 0,0" /></g><g
           transform="translate(113.8447,128.832)"
           id="g24"><path
             id="path26"
             style="fill:#3c5c97;fill-opacity:1;fill-rule:evenodd;stroke:none"
             d="m 0,0 c 2.768,0.338 1.374,-5.666 0.725,-6.527 -1.073,0.377 -1.828,1.073 -2.901,1.45 C -2.915,-1.92 -0.675,-1.742 0,0" /></g><g
           transform="translate(105.1416,120.854)"
           id="g28"><path
             id="path30"
             style="fill:#3c5c97;fill-opacity:1;fill-rule:evenodd;stroke:none"
             d="M 0,0 C 1.455,0.247 2.269,-0.148 2.176,-1.451 H 0 Z" /></g><g
           transform="translate(139.9546,113.6011)"
           id="g32"><path
             id="path34"
             style="fill:#3c5c97;fill-opacity:1;fill-rule:evenodd;stroke:none"
             d="M 0,0 H 2.176 C 2.047,-2.289 1.667,-4.326 -0.725,-4.352 -1.249,-2.135 0.016,-1.708 0,0" /></g><g
           transform="translate(137.0537,93.2935)"
           id="g36"><path
             id="path38"
             style="fill:#3c5c97;fill-opacity:1;fill-rule:evenodd;stroke:none"
             d="m 0,0 c 1.06,-2.566 3.845,-3.408 5.077,-5.802 v -5.077 H 1.45 c 2.05,-4.618 -1.509,-6.264 -2.176,-10.154 h -5.802 c 2.246,5.95 4.241,14.417 0.726,20.308 0.645,0.446 1.297,0.876 1.45,0 C -2.466,-2.678 -2.165,0.162 0,0" /></g><g
           transform="translate(233.6406,152.0332)"
           id="g40"><path
             id="path42"
             style="fill:#3c5c97;fill-opacity:1;fill-rule:evenodd;stroke:none"
             d="m 0,0 c -0.133,-2.122 -2.903,-2.549 -5.13,-2.893 -0.269,-0.042 -0.531,-0.082 -0.777,-0.124 -1.475,-0.251 -3.171,-0.373 -5.186,-0.373 -2.335,0 -4.763,0.162 -7.113,0.32 l -1.162,0.077 0.318,0.204 c 2.933,1.888 7.574,2.118 12.063,2.34 2.319,0.115 4.716,0.234 6.841,0.58 L 0.01,0.156 Z m -23.376,-14.616 c -0.384,0.137 -0.806,0.248 -1.214,0.355 -1.514,0.398 -3.082,0.808 -3.221,2.655 l -0.01,0.142 0.142,-0.008 c 2.148,-0.12 4.442,-0.464 4.47,-3.025 l 0.002,-0.179 z m -4.189,-2.817 -0.024,-0.085 -0.089,-0.006 c -0.079,-0.005 -0.155,-0.007 -0.23,-0.007 h -10e-4 c -0.969,0 -1.542,0.4 -2.097,0.786 -0.408,0.284 -0.794,0.553 -1.334,0.675 l -0.134,0.03 0.042,0.13 c 0.172,0.529 0.664,0.832 1.351,0.832 0.833,0 1.776,-0.447 2.242,-1.064 0.304,-0.401 0.399,-0.848 0.274,-1.291 m -4.347,2.932 c -0.019,-0.626 -0.602,-0.7 -1.07,-0.76 -0.164,-0.021 -0.331,-0.042 -0.472,-0.082 l -0.164,-0.048 0.005,0.171 c 0.018,0.627 0.602,0.7 1.071,0.76 0.163,0.021 0.331,0.042 0.471,0.082 l 0.164,0.047 z m -9.299,6.645 -0.905,-0.225 c -2.914,-4.107 -7.915,-6.722 -15.284,-7.99 l -0.201,-0.035 0.06,0.194 c 0.903,2.953 3.795,4.287 6.855,5.699 0.628,0.29 1.279,0.589 1.912,0.904 0.149,0.074 0.468,0.442 0.725,0.738 0.373,0.429 0.591,0.674 0.744,0.72 1.465,0.443 1.857,0.626 2.905,1.116 0.206,0.097 0.436,0.205 0.706,0.329 1.041,0.479 2.356,1.003 3.75,1.557 3.375,1.343 7.575,3.014 10.005,4.954 l 0.043,0.036 0.056,-0.01 c 0.625,-0.11 1.043,-0.348 1.277,-0.729 0.436,-0.705 0.127,-1.728 -0.168,-2.717 -0.113,-0.373 -0.219,-0.727 -0.283,-1.053 l -0.013,-0.07 -0.069,-0.024 c -3.827,-1.345 -8.04,-2.387 -12.115,-3.394 m 37.341,-2.25 0.011,0.032 0.025,0.022 c 0.643,0.561 1.651,0.809 2.989,0.756 l 0.119,-0.005 v -2.438 l -0.14,0.018 c -0.281,0.036 -0.703,0.013 -1.104,-0.013 -0.249,-0.017 -0.505,-0.035 -0.743,-0.035 -0.405,0 -0.903,0.044 -1.151,0.389 -0.199,0.276 -0.201,0.692 -0.006,1.274 m -55.913,-22.399 c 0.373,-1.051 0.227,-2.113 -0.42,-3.072 -0.045,-0.362 0.013,-0.629 0.173,-0.813 0.338,-0.387 1.127,-0.388 1.889,-0.388 1.022,-0.001 2.078,-0.002 2.291,-0.9 0.018,-0.678 -0.15,-1.174 -0.509,-1.541 -0.713,-0.729 -2.033,-0.789 -3.437,-0.789 l -0.884,0.003 c -0.091,0 -0.182,-10e-4 -0.273,-10e-4 -0.404,-1.536 -0.272,-2.578 0.414,-3.278 0.621,-0.633 1.644,-0.913 2.636,-1.183 0.417,-0.114 0.848,-0.232 1.248,-0.375 l 0.091,-0.032 -0.008,-0.096 c -0.293,-3.51 -2.008,-5.216 -5.243,-5.216 -0.223,0 -0.456,0.008 -0.693,0.025 l -0.203,0.014 0.105,0.175 c 1.37,2.276 -0.593,3.869 -2.491,5.41 -0.719,0.584 -1.398,1.135 -1.851,1.7 l -0.025,0.03 -0.003,0.039 c -0.42,5.507 0.536,10.04 2.92,13.856 l 0.051,0.081 0.091,-0.028 c 1.58,-0.467 3.507,-1.861 4.131,-3.621 m 6.015,-26.113 0.082,-0.019 0.014,-0.084 c 0.164,-1.106 0.021,-1.929 -0.426,-2.446 -0.381,-0.44 -0.98,-0.664 -1.784,-0.664 h -0.001 c -0.255,0 -0.535,0.022 -0.833,0.067 l -0.106,0.015 v 3.836 l 0.1,0.021 c 0.238,0.048 0.454,0.071 0.661,0.071 0.64,0 1.054,-0.224 1.455,-0.441 0.267,-0.145 0.52,-0.282 0.838,-0.356 m 1.952,2.943 c 0.208,2.137 1.438,4.438 3.648,4.438 0.301,0 0.614,-0.044 0.932,-0.129 l 0.091,-0.025 v -0.095 c 0.002,-0.307 0.006,-0.615 0.009,-0.924 0.034,-3.339 0.071,-6.791 -2.255,-7.893 l -0.037,-0.018 -0.041,0.008 c -1.887,0.372 -2.54,2.665 -2.347,4.638 m 2.975,17.997 0.022,0.087 0.089,0.009 c 0.59,0.055 1.018,-0.08 1.305,-0.4 0.602,-0.674 0.45,-2.011 0.29,-3.427 -0.117,-1.033 -0.237,-2.1 -0.014,-2.787 l 0.059,-0.183 -0.191,0.02 c -0.57,0.061 -1.024,0.324 -1.35,0.784 -1.144,1.614 -0.375,5.196 -0.21,5.897 m -44.804,-75.34 c 1.193,-0.421 2.724,-0.581 4.345,-0.75 1.491,-0.155 3.033,-0.316 4.352,-0.698 l 0.699,-0.2 c 2.313,-0.66 4.311,-1.23 5.88,-2.73 l 0.116,-0.112 -0.136,-0.085 c -0.645,-0.405 -1.453,-0.601 -2.468,-0.601 -1.717,0 -3.768,0.583 -5.577,1.097 -0.256,0.074 -0.509,0.146 -0.758,0.215 -0.596,0.166 -1.301,0.345 -2.048,0.535 -3.763,0.956 -8.916,2.265 -11.065,4.577 -0.378,0.572 -0.792,1.201 -0.758,2.265 l 0.002,0.087 0.083,0.027 c 0.309,0.105 0.603,0.155 0.9,0.155 1.148,0 2.054,-0.765 3.104,-1.65 0.914,-0.77 1.95,-1.644 3.329,-2.132 m -14.445,5.611 -0.031,-0.042 -0.051,-0.008 c -0.463,-0.071 -0.909,-0.107 -1.324,-0.107 h -0.001 c -2.054,0 -3.264,0.867 -4.433,1.707 -0.277,0.199 -0.564,0.404 -0.857,0.594 l -0.06,0.039 0.003,0.072 c 0.038,0.87 0.011,1.823 -0.015,2.745 -0.079,2.78 -0.162,5.655 1.521,6.782 l 0.035,0.023 0.042,-0.002 c 3.144,-0.184 5.647,-1.621 6.694,-3.845 1.087,-2.307 0.546,-5.134 -1.523,-7.958 m -2.152,-12.381 h -1.701 v 3.151 h 1.701 z m -8.109,7.978 c -1.021,0.042 -1.798,0.366 -2.311,0.96 -0.641,0.745 -0.88,1.932 -0.709,3.53 l 0.012,0.113 0.114,-0.001 c 2.56,-0.028 2.904,-2.322 3.025,-4.47 l 0.007,-0.137 z m -7.125,1.551 c -0.086,-0.436 -0.421,-0.719 -0.856,-0.719 -0.409,0 -0.836,0.278 -0.842,0.742 l 0.006,0.038 c 0.081,0.267 0.198,0.542 0.444,0.542 0.137,0 0.262,-0.088 0.406,-0.189 0.194,-0.136 0.416,-0.295 0.709,-0.265 l 0.166,0.015 z m -7.412,11.509 c -1.468,0.452 -2.507,1.536 -3.085,3.221 -1.155,3.369 -0.101,8.37 1.569,10.751 l 0.031,0.045 0.054,0.007 c 0.871,0.117 1.402,-0.155 1.588,-0.815 l 0.01,-0.034 -0.009,-0.033 c -1.011,-3.703 -1.011,-9.287 0,-12.989 l 0.059,-0.219 z m 4.989,55.242 c 0.086,0.522 0.326,0.597 0.461,0.597 0.113,0 0.228,-0.053 0.324,-0.15 0.12,-0.121 0.191,-0.289 0.19,-0.449 -0.085,-0.521 -0.326,-0.596 -0.461,-0.596 -0.113,0 -0.228,0.053 -0.323,0.149 -0.121,0.122 -0.192,0.289 -0.191,0.449 m -2.776,7.252 c -3.012,3.539 2.764,8.2 -0.725,10.154 -0.058,2.716 3.127,2.192 2.175,5.802 -1.371,2.467 -2.542,-1.242 -4.351,-0.725 0.84,4.129 4.955,6.382 5.077,10.879 0.031,1.146 -1.021,2.089 -0.726,3.626 -3.284,0.832 -5.404,-3.251 -7.978,-0.725 -0.547,2.532 2.501,1.11 3.627,1.451 1.623,0.49 2.384,1.728 3.626,1.45 0.384,0.583 0.757,1.177 0.725,2.176 6.023,0.943 7.443,-4.282 10.154,-8.704 1.936,-3.156 5.109,-9.632 6.528,-13.054 1.315,-1.828 4.224,-2.062 5.077,-4.352 0.129,-2.547 -2.45,-2.386 -2.901,-4.352 0.566,-3.11 3.508,0.657 5.076,-1.45 -1.233,-3.133 -4.074,-8.477 -7.978,-6.528 -2.206,-0.695 -1.468,-4.333 -5.076,-3.626 1.059,3.246 -0.01,3.629 -3.627,3.626 -0.612,3.03 1.41,3.425 1.451,5.802 -2.828,1.831 -6.223,-1.975 -10.154,-1.45 m -4.764,-10.335 -0.007,0.139 c -0.016,0.009 -0.017,0.035 -0.003,0.079 l -0.002,0.031 c 0.003,10e-4 0.01,0.005 0.013,0.007 0.023,0.055 0.064,0.129 0.125,0.227 0.005,0.008 0.007,0.013 0.013,0.022 0.068,0.108 0.155,0.237 0.273,0.401 0.164,0.119 0.293,0.206 0.401,0.273 0.01,0.007 0.016,0.01 0.026,0.016 0.094,0.058 0.168,0.099 0.222,0.122 10e-4,0 10e-4,10e-4 0.002,10e-4 0.001,0.002 0.006,0.009 0.007,0.012 l 0.03,-10e-4 c 0.02,0.006 0.047,0.018 0.06,0.018 v 0.127 h 0.052 l 0.1,-0.082 0.007,-0.074 c -0.001,-0.259 -1.062,-1.318 -1.319,-1.318 m -0.951,21.125 -0.043,-0.043 -0.06,0.008 c -1.291,0.163 -2.097,0.554 -2.465,1.195 -0.357,0.623 -0.295,1.475 0.19,2.605 l 0.03,0.071 0.078,0.005 c 0.052,0.002 0.103,0.003 0.155,0.003 1.267,0 2.066,-0.845 2.391,-1.636 0.343,-0.836 0.236,-1.702 -0.276,-2.208 m 31.415,-15.541 c 0.386,0.419 1.015,0.595 1.871,0.524 l 0.294,-0.025 -0.223,-0.194 c -0.239,-0.21 -0.341,-0.573 -0.448,-0.959 -0.173,-0.622 -0.37,-1.327 -1.255,-1.327 h -10e-4 c -0.173,0 -0.369,0.028 -0.585,0.083 l -0.086,0.022 -0.007,0.089 c -0.066,0.796 0.082,1.397 0.44,1.787 m -37.192,-7.363 c -0.248,-0.343 -0.746,-0.388 -1.151,-0.388 -0.238,0 -0.495,0.018 -0.743,0.035 -0.399,0.028 -0.822,0.049 -1.104,0.013 l -0.141,-0.018 v 1.718 h 3.117 l 0.028,-0.086 c 0.195,-0.581 0.193,-0.997 -0.006,-1.274 m -9.081,17.722 h -0.001 c -0.998,0 -2.057,0.044 -3.081,0.088 -1.022,0.044 -2.079,0.089 -3.072,0.089 -0.877,0 -1.619,-0.035 -2.27,-0.107 l -0.261,-0.029 0.141,0.22 c 1.131,1.765 7.702,3.277 12.288,3.277 1.253,0 2.289,-0.108 3.081,-0.322 l 0.125,-0.034 -0.038,-0.123 c -0.818,-2.696 -3.953,-3.059 -6.912,-3.059 m 3.281,-7.108 c -0.487,-1.135 -1.693,-1.686 -3.685,-1.686 -1.49,0 -3.206,0.313 -4.586,0.564 -0.791,0.145 -1.474,0.269 -2.01,0.321 l -0.156,0.016 0.05,0.149 c 0.483,1.434 2.751,1.735 4.569,1.735 2.285,0 4.72,-0.475 5.754,-0.935 l 0.113,-0.051 z m -10.387,11.694 c 0.699,2.031 3.16,2.304 5.476,2.304 0.643,0 1.317,-0.022 1.899,-0.043 l 0.189,-0.007 -0.08,-0.171 c -0.759,-1.626 -2.946,-1.807 -5.062,-1.981 -0.772,-0.063 -1.57,-0.129 -2.28,-0.265 l -0.212,-0.04 z m 60.606,-3.179 c 0.445,0.636 0.865,1.237 1.043,1.731 0.265,0.731 0.273,1.44 0.282,2.126 0.01,0.809 0.02,1.573 0.456,2.251 l 0.031,0.048 0.057,0.008 c 0.873,0.121 1.401,-0.156 1.588,-0.815 l 0.007,-0.026 -0.004,-0.026 c -0.529,-3.676 -1.151,-7.168 -2.925,-9.487 l -0.047,-0.061 -0.075,0.014 c -0.934,0.176 -1.486,0.504 -1.69,1.005 -0.362,0.888 0.471,2.079 1.277,3.232 m 2.488,16.937 c 0.056,0.399 0.185,0.601 0.383,0.601 0.094,0 0.186,-0.051 0.273,-0.151 0.202,-0.233 0.38,-0.762 0.316,-1.211 -0.056,-0.399 -0.185,-0.601 -0.382,-0.601 -0.095,0 -0.187,0.051 -0.274,0.15 -0.202,0.234 -0.38,0.763 -0.316,1.212 m 7.252,24.652 c 0.193,2.326 1.747,2.674 2.657,2.674 0.577,0 1.222,-0.136 1.865,-0.393 l 0.066,-0.026 0.011,-0.07 c 0.119,-0.732 0.017,-1.276 -0.311,-1.662 -0.522,-0.614 -1.549,-0.696 -2.485,-0.696 -0.313,0 -0.635,0.01 -0.958,0.019 -0.242,0.008 -0.484,0.015 -0.722,0.018 l -0.135,0.002 z m 3.876,-3.762 h -1.701 v 1.701 h 1.701 z m 19.635,1.455 c -0.056,0 -0.113,-0.002 -0.173,-0.004 l -0.18,-0.008 0.056,0.171 c 0.323,0.993 0.878,1.455 1.746,1.455 0.54,0 1.163,-0.174 1.822,-0.359 0.775,-0.216 1.653,-0.462 2.544,-0.462 0.436,0 0.836,0.057 1.224,0.172 l 0.12,0.036 0.036,-0.119 c 0.223,-0.738 0.604,-1.343 0.972,-1.929 0.647,-1.03 1.316,-2.094 1.209,-3.917 l -0.007,-0.118 h -6.005 l -0.032,0.079 c -0.212,0.52 -0.356,1.113 -0.497,1.687 -0.417,1.705 -0.811,3.316 -2.835,3.316 M 8.578,2.909 C 3.282,4.062 -2.403,0.475 -5.202,3.634 -4.445,7.229 1.704,5.431 2.051,9.437 -26.112,5.445 -48.2,-4.621 -67.576,-17.399 c -1.566,1.094 -2.65,2.67 -3.626,4.352 -0.002,2.657 -3.395,1.924 -2.176,5.802 5.486,3.217 11.653,5.753 19.582,6.527 1.102,2.526 2.754,4.499 2.9,7.979 -1.492,2.374 -3.751,3.983 -5.801,5.802 -6.94,-1.366 -15.586,3.463 -18.132,-2.176 1.161,-5.609 9.683,-3.855 12.33,-7.978 -2.319,-6.123 -10.06,-5.576 -17.406,-6.528 0.068,-2.832 3.54,-2.261 3.626,-5.077 -0.57,-2.987 1.113,-3.721 0.725,-6.527 2.233,-0.54 1.394,1.991 3.626,1.451 3.799,-4.93 1.905,-8.315 -2.176,-10.154 -1.125,-0.508 -1.381,-4.818 -3.625,-2.902 -1.166,1.908 -0.891,4.875 -1.452,7.253 -0.605,2.572 -1.106,6.36 -2.9,6.528 0.912,-6.099 1.054,-12.969 2.176,-18.857 -1.788,-1.75 -2.902,-3.846 -4.352,-5.803 -4.679,-6.308 -10.647,-10.865 -12.33,-19.582 3.215,-3.139 12.111,-9.532 4.352,-14.506 -0.098,-3.287 -1.775,-4.995 -2.176,-7.978 0.242,-2.659 2.874,-2.928 2.176,-6.527 -5.977,-5.583 -22.551,-2.885 -22.484,6.527 2.294,-0.497 4.96,-2.738 6.528,0 -3.878,-0.251 -3.338,3.916 -6.528,4.352 -0.729,-1.93 -2.096,-3.223 -4.352,-3.626 0.907,-4.203 5.577,-8.745 8.704,-10.154 0.274,-0.124 0.379,-1.315 0.725,-1.451 4.223,-1.664 9.152,0.425 14.505,-1.451 0.479,-4.105 -6.602,-0.65 -6.527,-4.351 2.021,-1.774 4.414,1.026 5.802,-0.726 0.791,-2.924 -0.857,-5.461 -2.901,-5.801 -2.322,-0.388 0.345,2.126 -1.45,2.9 -1.653,0.713 -2.075,-1.819 -3.627,-0.725 0.232,1.682 -0.117,2.785 -0.725,3.626 -5.063,3.399 -11.548,5.376 -15.231,10.155 -0.636,2.265 -1.972,3.83 -2.901,5.802 -3.793,1.343 -7.511,0.298 -11.605,0 -3.007,-3.037 -3.197,-8.891 -6.527,-11.605 -2.659,10.452 3.065,18.652 14.506,17.407 -0.484,2.901 -2.18,4.589 -2.902,7.253 5.273,5.606 12.91,8.849 18.858,13.78 1.474,4.94 6.875,9.205 9.429,13.055 1.262,1.903 2.437,2.838 3.625,4.352 0.746,0.949 1.397,1.847 2.176,2.901 2.783,3.764 2.234,6.863 2.902,13.055 0.91,8.437 1.031,16.718 2.901,23.209 2.306,2.287 6.057,3.129 9.429,4.351 0.952,2.251 -0.197,2.07 0,5.077 0.891,2.492 4.83,1.939 3.626,6.528 -2.447,2.52 -5.935,0.236 -8.703,-0.725 -3.291,-1.144 -6.212,-3.38 -9.429,-3.627 -1.6,-3.491 -4.093,-7.617 -6.527,-12.33 -3.141,-6.081 -7.848,-13.881 -2.902,-18.132 -2.331,-1.497 -2.37,-4.169 -1.451,-7.252 -4.912,4.036 -9.519,9.422 -12.329,14.505 -0.472,0.854 -1.041,2.081 -1.451,2.901 -2.828,5.663 -5.269,6.673 -10.154,9.429 -0.852,0.481 -1.392,0.916 -2.175,1.45 -0.92,0.628 -2.137,0.932 -2.902,1.451 -1.335,0.907 -2.348,2.678 -3.626,3.627 -0.306,0.227 -1.096,-0.161 -1.45,0 -0.23,0.103 -0.466,1.27 -0.726,1.45 -3.64,2.523 -5.57,4.473 -8.703,7.253 -0.009,1.11 -1.979,2.384 -1.451,0 -0.379,-3.547 3.578,-6.544 1.451,-9.429 -5.786,1.709 -4.878,10.112 -10.879,11.604 -2.013,-2.777 1.7,-8.414 0,-10.878 -3.819,1.982 -5.375,6.23 -10.154,7.252 -0.912,-7.681 4.572,-8.966 5.077,-15.231 -4.695,0.382 -6.103,4.051 -10.88,4.352 -0.118,-2.295 1.928,-2.424 1.451,-5.077 -2.623,-1.463 -1.142,-3.438 -1.451,-5.802 -0.059,-0.454 -1.062,-0.812 -0.725,-2.176 0.643,-2.6 2.615,-3.149 3.627,-5.077 -1.105,-1.313 -4.973,0.138 -4.352,-2.901 2.405,-4.848 11.091,-3.415 15.956,-5.802 -2.281,-2.796 -9.262,-0.892 -13.78,-1.451 0.785,-3.325 4.623,-3.597 5.077,-7.253 2.149,-1.508 4.417,-3.61 5.802,-5.077 0.744,-0.787 0.648,-1.933 1.451,-2.901 0.505,-0.609 1.675,-0.823 2.175,-1.45 0.774,-0.969 0.687,-2.024 1.451,-2.902 0.533,-0.611 1.612,-0.854 2.176,-1.45 0.691,-0.731 1.156,-2.653 1.451,-2.901 0.744,-0.627 2.685,-0.897 3.626,-1.45 5.278,-3.108 7.699,-8.319 12.33,-10.88 3.75,-2.073 7.659,-2.373 11.604,-3.626 -3.328,-2.392 -5.019,-6.039 -7.253,-9.429 -0.852,-1.293 -1.939,-3.319 -2.901,-4.351 -0.343,-0.368 -1.792,-0.432 -2.176,-0.726 -8.029,-6.14 -7.833,-17.494 -2.901,-25.384 0.566,-0.906 1.021,-2.338 1.451,-2.902 3.328,-4.356 10.356,-6.488 11.604,-13.055 -0.311,-3.073 -3.074,-3.694 -3.626,-6.527 0.973,-0.477 1.35,-1.55 1.451,-2.901 0.978,-1.888 5.063,0.459 5.076,-0.725 v -2.902 c 4.091,-0.581 5.867,0.493 7.253,1.451 0.875,0.605 2.378,1.022 2.901,1.451 2.149,1.76 3.246,4.955 5.802,5.802 3.41,-1.595 7.961,-0.338 10.88,0.725 0.815,2.086 0.914,4.888 3.626,5.077 6.522,-0.731 11.627,-2.879 13.055,-8.703 4.49,-0.139 8.668,0.035 9.428,3.626 -1.043,2.827 -2.627,5.667 -5.077,7.253 -5.045,3.268 -13.679,1.741 -17.406,6.527 3.302,6.852 5.314,14.994 6.527,23.934 2.526,1.955 5.295,3.288 7.979,5.078 1.837,1.224 5.459,3.328 6.527,4.351 2.083,1.996 4.487,3.691 6.528,5.802 1.698,1.757 2.443,5.349 5.801,5.077 0.079,-4.031 -0.576,-8.796 1.452,-10.879 5.165,0.395 4.398,6.723 8.703,7.978 2.601,-0.057 0.576,-4.742 2.174,-5.802 1.958,-0.179 2.082,2.395 2.903,3.626 1.852,2.779 3.468,5.241 5.076,7.978 2.528,4.302 1.832,4.75 0.726,9.429 -1.552,6.564 -2.135,11.36 -3.626,16.681 -2.333,-0.568 -4.808,-0.994 -6.528,-2.175 -1.884,1.258 -3.207,3.079 -4.352,5.077 -1.269,1.631 -4.131,1.67 -4.352,4.351 -0.035,2.211 0.659,3.693 2.176,4.352 h 5.803 c 7.482,3.969 19.605,1.055 29.736,2.901 4.813,0.877 8.393,3.06 12.33,3.626 0.943,1.801 -2.128,3.01 0,3.627 5.022,-1.033 15.28,-2.004 16.681,2.901 -0.609,2.027 -3.527,1.639 -5.802,2.176 -2.043,0.481 -5.674,-0.108 -5.803,2.176 4.449,3.287 13.334,2.139 14.506,8.703" /></g></g></g><g
       id="g44"><g
         clip-path="url(#clipPath50)"
         id="g46"><text
           id="text54"
           style="font-variant:normal;font-weight:bold;font-stretch:normal;font-size:62.00003052px;font-family:Helvetica;-inkscape-font-specification:Helvetica-Bold;writing-mode:lr-tb;fill:#3c5c97;fill-opacity:1;fill-rule:nonzero;stroke:none"
           transform="matrix(0.67196257,0.74058511,0.74058511,-0.67196257,34.8448,149.4184)"><tspan
             id="tspan52"
             y="0"
             x="0">J</tspan></text>
</g></g><text
       id="text58"
       style="font-variant:normal;font-weight:bold;font-stretch:normal;font-size:62.0000267px;font-family:Helvetica;-inkscape-font-specification:Helvetica-Bold;writing-mode:lr-tb;fill:#3c5c97;fill-opacity:1;fill-rule:nonzero;stroke:none"
       transform="matrix(0.89975443,0.43639657,0.43639657,-0.89975443,57.4266,174.9803)"><tspan
         id="tspan56"
         y="0"
         x="0">A</tspan></text>
<g
       id="g60"><g
         clip-path="url(#clipPath66)"
         id="g62"><text
           id="text70"
           style="font-variant:normal;font-weight:bold;font-stretch:normal;font-size:62.00001526px;font-family:Helvetica;-inkscape-font-specification:Helvetica-Bold;writing-mode:lr-tb;fill:#3c5c97;fill-opacity:1;fill-rule:nonzero;stroke:none"
           transform="matrix(0.99079653,0.13535964,0.13535964,-0.99079653,100.0282,194.8717)"><tspan
             id="tspan68"
             y="0"
             x="0">N</tspan></text>
<text
           id="text74"
           style="font-variant:normal;font-weight:bold;font-stretch:normal;font-size:62.00000763px;font-family:Helvetica;-inkscape-font-specification:Helvetica-Bold;writing-mode:lr-tb;fill:#3c5c97;fill-opacity:1;fill-rule:nonzero;stroke:none"
           transform="matrix(0.99274989,-0.12019837,-0.12019837,-0.99274989,147.4581,200.5038)"><tspan
             id="tspan72"
             y="0"
             x="0">T</tspan></text>
<text
           id="text78"
           style="font-variant:normal;font-weight:bold;font-stretch:normal;font-size:61.99996567px;font-family:Helvetica;-inkscape-font-specification:Helvetica-Bold;writing-mode:lr-tb;fill:#3c5c97;fill-opacity:1;fill-rule:nonzero;stroke:none"
           transform="matrix(0.93150535,-0.36372762,-0.36372762,-0.93150535,182.9547,197.0913)"><tspan
             id="tspan76"
             y="0"
             x="0">A</tspan></text>
<text
           id="text82"
           style="font-variant:normal;font-weight:bold;font-stretch:normal;font-size:62.00003052px;font-family:Helvetica;-inkscape-font-specification:Helvetica-Bold;writing-mode:lr-tb;fill:#3c5c97;fill-opacity:1;fill-rule:nonzero;stroke:none"
           transform="matrix(0.70475773,-0.70944805,-0.70944805,-0.70475773,226.2284,180.757)"><tspan
             id="tspan80"
             y="0"
             x="0">R</tspan></text>
</g></g></g></svg>
